%TF.GenerationSoftware,KiCad,Pcbnew,(6.0.10)*%
%TF.CreationDate,2023-02-16T14:37:26-08:00*%
%TF.ProjectId,lab4 task2,6c616234-2074-4617-936b-322e6b696361,rev?*%
%TF.SameCoordinates,Original*%
%TF.FileFunction,Legend,Top*%
%TF.FilePolarity,Positive*%
%FSLAX46Y46*%
G04 Gerber Fmt 4.6, Leading zero omitted, Abs format (unit mm)*
G04 Created by KiCad (PCBNEW (6.0.10)) date 2023-02-16 14:37:26*
%MOMM*%
%LPD*%
G01*
G04 APERTURE LIST*
%ADD10C,0.150000*%
%ADD11C,0.120000*%
G04 APERTURE END LIST*
D10*
%TO.C,R1*%
X165932380Y-91336666D02*
X165456190Y-91670000D01*
X165932380Y-91908095D02*
X164932380Y-91908095D01*
X164932380Y-91527142D01*
X164980000Y-91431904D01*
X165027619Y-91384285D01*
X165122857Y-91336666D01*
X165265714Y-91336666D01*
X165360952Y-91384285D01*
X165408571Y-91431904D01*
X165456190Y-91527142D01*
X165456190Y-91908095D01*
X165932380Y-90384285D02*
X165932380Y-90955714D01*
X165932380Y-90670000D02*
X164932380Y-90670000D01*
X165075238Y-90765238D01*
X165170476Y-90860476D01*
X165218095Y-90955714D01*
%TO.C,R3*%
X146882380Y-94146666D02*
X146406190Y-94480000D01*
X146882380Y-94718095D02*
X145882380Y-94718095D01*
X145882380Y-94337142D01*
X145930000Y-94241904D01*
X145977619Y-94194285D01*
X146072857Y-94146666D01*
X146215714Y-94146666D01*
X146310952Y-94194285D01*
X146358571Y-94241904D01*
X146406190Y-94337142D01*
X146406190Y-94718095D01*
X145882380Y-93813333D02*
X145882380Y-93194285D01*
X146263333Y-93527619D01*
X146263333Y-93384761D01*
X146310952Y-93289523D01*
X146358571Y-93241904D01*
X146453809Y-93194285D01*
X146691904Y-93194285D01*
X146787142Y-93241904D01*
X146834761Y-93289523D01*
X146882380Y-93384761D01*
X146882380Y-93670476D01*
X146834761Y-93765714D01*
X146787142Y-93813333D01*
%TO.C,J1*%
X154606666Y-85812380D02*
X154606666Y-86526666D01*
X154559047Y-86669523D01*
X154463809Y-86764761D01*
X154320952Y-86812380D01*
X154225714Y-86812380D01*
X155606666Y-86812380D02*
X155035238Y-86812380D01*
X155320952Y-86812380D02*
X155320952Y-85812380D01*
X155225714Y-85955238D01*
X155130476Y-86050476D01*
X155035238Y-86098095D01*
%TO.C,U1*%
X154208095Y-87712380D02*
X154208095Y-88521904D01*
X154255714Y-88617142D01*
X154303333Y-88664761D01*
X154398571Y-88712380D01*
X154589047Y-88712380D01*
X154684285Y-88664761D01*
X154731904Y-88617142D01*
X154779523Y-88521904D01*
X154779523Y-87712380D01*
X155779523Y-88712380D02*
X155208095Y-88712380D01*
X155493809Y-88712380D02*
X155493809Y-87712380D01*
X155398571Y-87855238D01*
X155303333Y-87950476D01*
X155208095Y-87998095D01*
%TO.C,D1*%
X143412380Y-89855595D02*
X142412380Y-89855595D01*
X142412380Y-89617500D01*
X142460000Y-89474642D01*
X142555238Y-89379404D01*
X142650476Y-89331785D01*
X142840952Y-89284166D01*
X142983809Y-89284166D01*
X143174285Y-89331785D01*
X143269523Y-89379404D01*
X143364761Y-89474642D01*
X143412380Y-89617500D01*
X143412380Y-89855595D01*
X143412380Y-88331785D02*
X143412380Y-88903214D01*
X143412380Y-88617500D02*
X142412380Y-88617500D01*
X142555238Y-88712738D01*
X142650476Y-88807976D01*
X142698095Y-88903214D01*
%TO.C,R2*%
X165932380Y-96416666D02*
X165456190Y-96750000D01*
X165932380Y-96988095D02*
X164932380Y-96988095D01*
X164932380Y-96607142D01*
X164980000Y-96511904D01*
X165027619Y-96464285D01*
X165122857Y-96416666D01*
X165265714Y-96416666D01*
X165360952Y-96464285D01*
X165408571Y-96511904D01*
X165456190Y-96607142D01*
X165456190Y-96988095D01*
X165027619Y-96035714D02*
X164980000Y-95988095D01*
X164932380Y-95892857D01*
X164932380Y-95654761D01*
X164980000Y-95559523D01*
X165027619Y-95511904D01*
X165122857Y-95464285D01*
X165218095Y-95464285D01*
X165360952Y-95511904D01*
X165932380Y-96083333D01*
X165932380Y-95464285D01*
%TO.C,C1*%
X165937142Y-104474166D02*
X165984761Y-104521785D01*
X166032380Y-104664642D01*
X166032380Y-104759880D01*
X165984761Y-104902738D01*
X165889523Y-104997976D01*
X165794285Y-105045595D01*
X165603809Y-105093214D01*
X165460952Y-105093214D01*
X165270476Y-105045595D01*
X165175238Y-104997976D01*
X165080000Y-104902738D01*
X165032380Y-104759880D01*
X165032380Y-104664642D01*
X165080000Y-104521785D01*
X165127619Y-104474166D01*
X166032380Y-103521785D02*
X166032380Y-104093214D01*
X166032380Y-103807500D02*
X165032380Y-103807500D01*
X165175238Y-103902738D01*
X165270476Y-103997976D01*
X165318095Y-104093214D01*
%TO.C,D2*%
X143412380Y-105930595D02*
X142412380Y-105930595D01*
X142412380Y-105692500D01*
X142460000Y-105549642D01*
X142555238Y-105454404D01*
X142650476Y-105406785D01*
X142840952Y-105359166D01*
X142983809Y-105359166D01*
X143174285Y-105406785D01*
X143269523Y-105454404D01*
X143364761Y-105549642D01*
X143412380Y-105692500D01*
X143412380Y-105930595D01*
X142507619Y-104978214D02*
X142460000Y-104930595D01*
X142412380Y-104835357D01*
X142412380Y-104597261D01*
X142460000Y-104502023D01*
X142507619Y-104454404D01*
X142602857Y-104406785D01*
X142698095Y-104406785D01*
X142840952Y-104454404D01*
X143412380Y-105025833D01*
X143412380Y-104406785D01*
%TO.C,R4*%
X146882380Y-99496666D02*
X146406190Y-99830000D01*
X146882380Y-100068095D02*
X145882380Y-100068095D01*
X145882380Y-99687142D01*
X145930000Y-99591904D01*
X145977619Y-99544285D01*
X146072857Y-99496666D01*
X146215714Y-99496666D01*
X146310952Y-99544285D01*
X146358571Y-99591904D01*
X146406190Y-99687142D01*
X146406190Y-100068095D01*
X146215714Y-98639523D02*
X146882380Y-98639523D01*
X145834761Y-98877619D02*
X146549047Y-99115714D01*
X146549047Y-98496666D01*
%TO.C,C2*%
X153167142Y-99459166D02*
X153214761Y-99506785D01*
X153262380Y-99649642D01*
X153262380Y-99744880D01*
X153214761Y-99887738D01*
X153119523Y-99982976D01*
X153024285Y-100030595D01*
X152833809Y-100078214D01*
X152690952Y-100078214D01*
X152500476Y-100030595D01*
X152405238Y-99982976D01*
X152310000Y-99887738D01*
X152262380Y-99744880D01*
X152262380Y-99649642D01*
X152310000Y-99506785D01*
X152357619Y-99459166D01*
X152357619Y-99078214D02*
X152310000Y-99030595D01*
X152262380Y-98935357D01*
X152262380Y-98697261D01*
X152310000Y-98602023D01*
X152357619Y-98554404D01*
X152452857Y-98506785D01*
X152548095Y-98506785D01*
X152690952Y-98554404D01*
X153262380Y-99125833D01*
X153262380Y-98506785D01*
D11*
%TO.C,R1*%
X163095000Y-90942936D02*
X163095000Y-91397064D01*
X164565000Y-90942936D02*
X164565000Y-91397064D01*
%TO.C,R3*%
X145515000Y-93752936D02*
X145515000Y-94207064D01*
X144045000Y-93752936D02*
X144045000Y-94207064D01*
%TO.C,J1*%
X160020000Y-77470000D02*
X149860000Y-77470000D01*
X149860000Y-77470000D02*
X149860000Y-85090000D01*
X149860000Y-85090000D02*
X160020000Y-85090000D01*
X149860000Y-78740000D02*
X160020000Y-78740000D01*
X160020000Y-85090000D02*
X160020000Y-77470000D01*
%TO.C,U1*%
X154970000Y-94220000D02*
X153020000Y-94220000D01*
X154970000Y-89100000D02*
X156920000Y-89100000D01*
X154970000Y-89100000D02*
X151520000Y-89100000D01*
X154970000Y-94220000D02*
X156920000Y-94220000D01*
%TO.C,D1*%
X143645000Y-87517500D02*
X143645000Y-91577500D01*
X143645000Y-91577500D02*
X145915000Y-91577500D01*
X145915000Y-91577500D02*
X145915000Y-87517500D01*
%TO.C,R2*%
X163095000Y-96022936D02*
X163095000Y-96477064D01*
X164565000Y-96022936D02*
X164565000Y-96477064D01*
%TO.C,C1*%
X164765000Y-101822500D02*
X162895000Y-101822500D01*
X164765000Y-105907500D02*
X164765000Y-101822500D01*
X162895000Y-101822500D02*
X162895000Y-105907500D01*
%TO.C,D2*%
X145915000Y-107652500D02*
X145915000Y-103592500D01*
X143645000Y-103592500D02*
X143645000Y-107652500D01*
X143645000Y-107652500D02*
X145915000Y-107652500D01*
%TO.C,R4*%
X145515000Y-99102936D02*
X145515000Y-99557064D01*
X144045000Y-99102936D02*
X144045000Y-99557064D01*
%TO.C,C2*%
X151865000Y-99031248D02*
X151865000Y-99553752D01*
X150395000Y-99031248D02*
X150395000Y-99553752D01*
%TD*%
M02*
